<svg version="1.1" id="Layer_1" xmlns="http://www.w3.org/2000/svg" xmlns:xlink="http://www.w3.org/1999/xlink" x="0px" y="0px"
	 width="100%" viewBox="0 0 1024 1024" enable-background="new 0 0 1024 1024" xml:space="preserve">
<path fill="#000000" opacity="1.000000" stroke="none" 
	d="
M392.334808,573.712280 
	C341.560547,538.672485 311.564484,490.951813 301.541016,430.456055 
	C288.083771,349.235901 327.059570,261.565582 399.983887,217.603760 
	C426.441223,201.654160 455.122437,192.223053 485.788971,188.520340 
	C531.926147,182.949677 575.846436,190.330811 616.531738,212.709885 
	C671.567566,242.982498 706.412354,289.250946 721.256775,350.360748 
	C725.867126,369.339813 728.356812,388.686218 727.161804,408.194641 
	C723.341064,470.567596 697.873169,522.191956 649.406250,562.080200 
	C619.540894,586.659302 585.401306,602.335693 547.265686,607.993469 
	C491.612579,616.250122 439.709747,605.541138 392.334808,573.712280 
M663.258789,505.782928 
	C688.026001,471.214600 700.576843,433.099030 697.903503,390.189117 
	C696.808594,372.614502 693.883789,355.522339 688.111389,338.982056 
	C657.599487,251.553665 568.848755,205.125931 483.560516,218.686813 
	C440.125244,225.593063 403.352661,245.631989 374.057343,278.566406 
	C333.354523,324.325470 320.669434,377.839691 332.053986,437.337891 
	C339.313385,475.277283 358.373016,506.908203 387.045807,532.510925 
	C431.696869,572.381104 484.160309,588.352905 543.169922,579.240784 
	C592.699829,571.592651 632.859070,546.927673 663.258789,505.782928 
z"/>
<path fill="#000000" opacity="1.000000" stroke="none" 
	d="
M702.830872,753.193359 
	C688.077148,753.291260 688.091003,753.291260 688.092041,739.228516 
	C688.093750,716.902771 688.070984,694.576965 688.066895,672.251221 
	C688.065735,665.896362 688.112244,665.760681 694.463989,665.890015 
	C706.943848,666.144104 719.478027,664.874817 731.895813,666.506226 
	C744.583923,668.173157 753.221619,676.145142 755.233948,687.145447 
	C758.043823,702.505920 753.500916,714.079346 742.007812,720.863159 
	C741.317932,721.270325 740.663574,721.737793 739.686218,722.377930 
	C742.156311,727.863037 745.757690,732.446594 748.754211,737.375916 
	C751.732910,742.276062 755.271729,746.867371 757.741699,753.127686 
	C750.559875,753.127686 744.134216,753.182129 737.710205,753.099487 
	C735.313782,753.068726 734.508484,750.972839 733.509644,749.265564 
	C729.221252,741.935791 724.998230,734.567322 720.653137,727.271484 
	C719.034302,724.553223 710.960815,723.063721 708.521606,724.888000 
	C707.092224,725.956970 707.374756,727.561768 707.367004,729.026245 
	C707.331726,735.690552 707.269836,742.356018 707.365601,749.018921 
	C707.407471,751.932373 706.369995,753.456116 702.830872,753.193359 
M727.368713,707.178101 
	C734.137024,704.629761 737.460266,699.697083 736.476624,693.659363 
	C735.326965,686.602539 731.496277,683.290588 723.741943,682.981750 
	C719.595215,682.816528 715.433899,683.052795 711.279785,683.024597 
	C708.636230,683.006653 707.289429,684.030701 707.335022,686.854614 
	C707.426392,692.504395 707.430664,698.157898 707.328308,703.807312 
	C707.278564,706.549744 708.335571,707.762695 711.135193,707.676331 
	C716.281128,707.517578 721.431702,707.511414 727.368713,707.178101 
z"/>
<path fill="#000000" opacity="1.000000" stroke="none" 
	d="
M406.348267,723.338745 
	C406.348877,735.663818 406.348877,735.661621 418.233978,735.656982 
	C427.370117,735.653381 436.506256,735.656250 446.285889,735.656250 
	C446.285889,740.898071 446.306091,745.665527 446.276855,750.432678 
	C446.263397,752.629028 444.790131,753.208984 442.930939,753.209412 
	C425.436920,753.213867 407.942871,753.226624 390.448914,753.190125 
	C386.682007,753.182251 386.978333,750.323303 386.973541,747.819458 
	C386.949280,735.156738 386.953430,722.493958 386.949921,709.831238 
	C386.946411,697.168579 387.071960,684.503906 386.874207,671.844299 
	C386.806000,667.478394 387.912598,665.646606 392.749756,665.730591 
	C408.739716,666.008301 424.739868,665.947937 440.731628,665.712769 
	C445.184387,665.647339 446.440033,667.178955 446.401337,671.492615 
	C446.292725,683.606628 446.461182,683.569641 434.414307,683.460266 
	C426.584106,683.389221 418.751373,683.535217 410.922455,683.412537 
	C407.552338,683.359741 406.309845,684.525024 406.269440,688.062317 
	C406.125641,700.656982 405.996674,700.653259 418.405396,700.661255 
	C425.236572,700.665649 432.068542,700.743591 438.898560,700.658325 
	C441.823273,700.621826 443.148071,701.718262 443.097534,704.753662 
	C442.837219,720.383728 444.593506,717.061462 431.426270,717.368042 
	C424.931732,717.519287 418.421844,717.609863 411.936157,717.329041 
	C407.688385,717.145142 405.542938,718.353088 406.348267,723.338745 
z"/>
<path fill="#000000" opacity="1.000000" stroke="none" 
	d="
M622.099609,736.344543 
	C611.425598,736.505066 613.591003,735.213562 610.215271,744.897278 
	C606.906311,754.389465 609.379333,753.171143 598.685852,753.186340 
	C595.249268,753.191284 591.725769,753.820740 588.400757,752.577881 
	C587.419678,750.326660 588.677246,748.561340 589.311035,746.737244 
	C598.147156,721.304077 607.644287,696.114258 617.123413,670.916199 
	C618.599731,666.991882 620.736145,665.696777 624.869324,665.740295 
	C640.438477,665.904358 640.467590,665.757019 645.921936,680.465088 
	C653.893677,701.961975 661.828186,723.472595 669.756836,744.985474 
	C670.606506,747.290833 671.311646,749.649414 672.320374,752.698059 
	C665.718811,753.566589 659.663879,753.349487 653.630981,752.981445 
	C651.615112,752.858459 651.377686,750.735596 650.847900,749.222900 
	C646.342590,736.359558 646.356689,736.353577 632.567261,736.339539 
	C629.239197,736.336182 625.911072,736.342407 622.099609,736.344543 
M628.948425,691.374207 
	C625.575012,700.508423 622.201538,709.642700 618.707764,719.102783 
	C626.328430,719.102783 633.248840,719.102783 640.882263,719.102783 
	C637.347900,709.505127 634.097351,700.646851 630.804504,691.804443 
	C630.579956,691.201538 630.525269,689.859375 628.948425,691.374207 
z"/>
<path fill="#000000" opacity="1.000000" stroke="none" 
	d="
M576.003296,726.586365 
	C579.596313,727.523376 578.289612,729.524353 577.527039,731.348694 
	C571.604492,745.518005 560.529480,752.951355 545.656799,754.239746 
	C518.912170,756.556580 501.069366,743.596741 496.298981,717.211060 
	C490.973663,687.755798 511.746277,665.054443 538.116699,664.572937 
	C547.666870,664.398560 556.716003,665.506348 564.845886,670.839111 
	C572.240540,675.689514 576.873657,682.491089 579.332275,691.565796 
	C573.652283,693.089050 568.408081,694.468140 563.181580,695.910828 
	C561.186035,696.461670 560.596924,694.948120 559.722412,693.776611 
	C551.919128,683.323242 541.178467,680.040649 530.455017,684.825195 
	C519.414673,689.751221 513.604980,701.910583 515.637634,714.143494 
	C519.154236,735.306580 541.124817,740.797241 553.790344,731.385437 
	C556.396851,729.448486 558.361511,727.008118 559.924133,724.246948 
	C561.147278,722.085693 562.542236,721.727661 564.832397,722.677429 
	C568.357605,724.139465 572.031494,725.242920 576.003296,726.586365 
z"/>
<path fill="#000000" opacity="1.000000" stroke="none" 
	d="
M835.145264,750.697388 
	C834.327759,753.558044 832.279297,753.187378 830.518677,753.191040 
	C813.867310,753.225830 797.215454,753.149048 780.564880,753.268250 
	C776.884583,753.294617 775.612183,751.901550 775.625366,748.270264 
	C775.719482,722.460876 775.720276,696.650818 775.624878,670.841431 
	C775.611694,667.272583 776.677185,665.785339 780.467346,665.814758 
	C796.951050,665.942749 813.436890,665.882141 829.921265,665.780396 
	C833.034668,665.761230 834.305481,666.768555 834.431458,670.066406 
	C834.942200,683.438416 835.039246,683.433838 821.847229,683.429199 
	C814.520569,683.426575 807.191284,683.543274 799.868469,683.375000 
	C796.466980,683.296814 795.052917,684.447937 795.144104,687.965576 
	C795.542664,703.334412 793.048706,700.371826 807.142639,700.654297 
	C813.800659,700.787781 820.464172,700.750732 827.123535,700.662354 
	C829.995422,700.624268 831.215332,701.614624 831.393494,704.679565 
	C832.132141,717.388306 832.224365,717.383667 819.376160,717.387024 
	C813.048645,717.388672 806.714233,717.564697 800.396118,717.320801 
	C796.561646,717.172791 795.135376,718.368530 795.113525,722.382446 
	C795.041443,735.660278 794.900391,735.658813 808.120911,735.659729 
	C815.614014,735.660217 823.109314,735.768433 830.599304,735.617737 
	C833.996033,735.549377 835.508606,736.755981 835.314392,740.242798 
	C835.129456,743.563599 835.233032,746.900574 835.145264,750.697388 
z"/>
<path fill="#000000" opacity="1.000000" stroke="none" 
	d="
M327.807739,753.214600 
	C323.661499,753.230896 319.995239,753.160950 316.332977,753.251770 
	C313.358398,753.325500 312.357635,752.154968 312.359406,749.069946 
	C312.373993,723.601013 312.204865,698.132141 312.112366,672.663086 
	C312.087677,665.864929 312.120880,665.853516 319.067810,665.847168 
	C334.225922,665.833191 349.385681,665.952881 364.541138,665.748230 
	C368.808441,665.690552 370.462433,666.895325 370.341309,671.392578 
	C369.957153,685.656189 371.924530,683.183472 358.515625,683.387146 
	C351.021576,683.500977 343.522247,683.511536 336.029510,683.360168 
	C332.622253,683.291382 331.385590,684.517517 331.285156,687.998291 
	C330.862488,702.649170 330.766937,702.644348 345.364380,702.649109 
	C350.694672,702.650818 356.025635,702.719543 361.354919,702.650757 
	C364.059753,702.615845 365.282104,703.688538 365.252838,706.484070 
	C365.087585,722.289062 367.013794,719.053711 353.400970,719.364380 
	C347.740448,719.493652 342.066406,719.568787 336.413757,719.320984 
	C332.403412,719.145081 331.190918,720.771851 331.288879,724.605225 
	C331.493073,732.595398 331.357391,740.594666 331.330292,748.590027 
	C331.322968,750.754456 331.570251,753.160645 327.807739,753.214600 
z"/>
<path fill="#000000" opacity="1.000000" stroke="none" 
	d="
M195.777069,730.999939 
	C195.768951,710.834656 195.867371,691.168213 195.672775,671.504700 
	C195.629776,667.160034 196.938782,665.228027 201.367981,665.838684 
	C202.349670,665.974060 203.365158,665.866516 204.365082,665.866882 
	C215.347549,665.870544 215.348038,665.870361 215.348373,677.111816 
	C215.348907,694.777344 215.484314,712.444702 215.254120,730.107239 
	C215.196106,734.558228 216.609818,735.886108 220.966309,735.741455 
	C229.789322,735.448730 238.631607,735.783020 247.460449,735.597656 
	C251.101990,735.521179 252.483780,736.718262 252.389511,740.455688 
	C252.006882,755.622253 254.504288,753.047791 239.870804,753.212402 
	C227.039932,753.356812 214.203400,753.087646 201.375092,753.319031 
	C196.925476,753.399231 195.474899,751.811829 195.712723,747.495056 
	C196.005646,742.178284 195.779770,736.832886 195.777069,730.999939 
z"/>
<path fill="#000000" opacity="1.000000" stroke="none" 
	d="
M270.658264,744.935303 
	C270.658447,720.977234 270.658142,697.508972 270.659790,674.040771 
	C270.660400,665.792664 270.662598,665.792725 279.155701,665.818298 
	C280.154327,665.821350 281.152985,665.823914 282.151611,665.825500 
	C290.147858,665.838196 290.153748,665.838135 290.153564,673.592468 
	C290.152985,698.059326 290.044830,722.526978 290.234070,746.992371 
	C290.270203,751.662292 289.065735,753.918945 284.107391,753.277344 
	C282.306824,753.044373 280.450562,753.242493 278.619690,753.242798 
	C270.692139,753.244202 270.692139,753.244080 270.658264,744.935303 
z"/>
<path fill="#000000" opacity="1.000000" stroke="none" 
	d="
M719.490234,787.528442 
	C720.479004,787.059875 721.121338,786.838135 721.775269,786.795593 
	C730.316895,786.240112 730.326782,786.246460 730.334167,794.904297 
	C730.344482,807.055847 730.431458,819.208679 730.259460,831.357788 
	C730.226440,833.689026 731.933167,837.380798 728.073242,838.040466 
	C724.296814,838.685852 720.244080,839.276917 717.365967,834.987305 
	C711.898071,826.838013 706.042236,818.948975 700.342834,810.955078 
	C699.581848,809.887756 698.794189,808.839417 697.196716,806.661316 
	C697.196716,816.114258 697.030945,824.327454 697.265442,832.529175 
	C697.385742,836.736877 696.179626,838.496277 691.643616,838.424927 
	C687.297180,838.356567 685.437317,837.336487 685.549377,832.536255 
	C685.852417,819.559509 685.566040,806.569885 685.731262,793.588196 
	C685.760742,791.270935 684.060303,787.551819 688.026245,786.996033 
	C691.765625,786.471924 695.843140,785.559021 698.709961,789.991272 
	C703.586670,797.530823 708.933960,804.766174 714.088684,812.125732 
	C715.216370,813.735779 716.215576,815.465332 718.355652,816.792725 
	C719.279236,806.981689 717.898804,797.367249 719.490234,787.528442 
z"/>
<path fill="#000000" opacity="1.000000" stroke="none" 
	d="
M427.493042,800.811157 
	C432.836212,790.614685 441.213165,786.040710 452.104828,786.332336 
	C462.980164,786.623413 471.246704,791.428345 475.663361,801.757324 
	C480.476898,813.014282 477.601135,825.819946 468.735535,833.110291 
	C459.967560,840.320435 446.123627,841.048218 436.495819,834.805298 
	C426.966980,828.626648 422.663055,816.058716 426.118469,804.434021 
	C426.449066,803.321960 426.925812,802.253235 427.493042,800.811157 
M466.265961,810.223999 
	C466.043854,809.422241 465.857391,808.608643 465.594086,807.820618 
	C462.971710,799.973145 456.760345,796.138794 448.593811,797.311707 
	C442.070404,798.248596 436.785950,804.507751 436.370789,811.789246 
	C435.939148,819.358704 440.710754,825.965515 447.939453,827.807434 
	C458.209564,830.424316 466.538483,822.867676 466.265961,810.223999 
z"/>
<path fill="#000000" opacity="1.000000" stroke="none" 
	d="
M604.450867,833.615784 
	C600.528870,828.451477 596.830383,823.580261 593.020691,818.562561 
	C589.128723,821.327454 586.710632,824.173157 587.744812,828.825806 
	C587.958191,829.785828 587.871399,830.816772 587.887634,831.815674 
	C587.981995,837.630859 582.851440,840.672791 577.592163,837.963013 
	C576.150085,837.219971 575.958130,835.941040 575.956970,834.595825 
	C575.943542,819.769714 575.812622,804.941406 576.038696,790.118652 
	C576.119080,784.845581 580.617188,787.209351 583.338989,786.781189 
	C586.174622,786.335083 587.536621,787.439270 587.492981,790.645691 
	C587.421631,795.895508 586.797852,801.215759 588.251404,807.653015 
	C593.058289,802.001587 597.699768,797.471619 601.208496,792.189331 
	C605.790161,785.291626 611.902710,786.495300 619.170532,787.214600 
	C616.185303,792.265930 612.557556,795.877686 609.217102,799.651733 
	C600.365051,809.652893 600.267090,809.622864 608.008850,820.177246 
	C611.946167,825.544922 616.040039,830.797668 620.042175,836.118042 
	C620.220825,836.355408 620.192017,836.748840 620.256836,837.070190 
	C614.287903,839.931213 608.427856,838.741821 604.450867,833.615784 
z"/>
<path fill="#000000" opacity="1.000000" stroke="none" 
	d="
M514.498413,835.751648 
	C504.615265,829.210144 500.543213,820.094604 501.969086,808.964661 
	C503.320007,798.419617 508.970276,790.614990 519.571533,787.495728 
	C532.030090,783.830078 547.186157,788.276855 549.893433,801.186951 
	C543.323364,805.031738 541.930054,804.879944 536.480103,800.038025 
	C532.591309,796.583069 527.965088,796.278809 523.327271,797.791016 
	C517.526123,799.682617 514.627625,804.302795 513.510315,810.034851 
	C512.195007,816.782898 516.178040,824.420715 522.163574,827.082886 
	C527.889160,829.629395 533.991211,828.039185 538.491760,822.515137 
	C539.891907,820.796814 541.126587,820.296753 543.164124,821.097107 
	C545.308044,821.939148 547.553406,822.523071 549.667664,823.192322 
	C550.245789,834.183350 531.403320,844.616821 514.498413,835.751648 
z"/>
<path fill="#000000" opacity="1.000000" stroke="none" 
	d="
M318.457397,838.999512 
	C303.853149,836.060242 296.717987,828.390686 295.275055,814.468689 
	C294.131439,803.434387 300.349701,792.806030 310.607971,788.261414 
	C321.518433,783.427795 335.307709,786.749146 341.065277,795.806274 
	C342.215576,797.615723 345.203186,800.312256 341.857635,802.019897 
	C339.023712,803.466309 335.388092,806.161560 331.940796,802.405151 
	C326.509308,796.486572 321.296387,795.247559 315.147583,798.324219 
	C309.409302,801.195312 305.565613,808.515320 306.639496,814.526978 
	C308.093109,822.664490 312.981110,827.802185 320.209106,828.323059 
	C323.376251,828.551270 327.068970,828.197693 328.891907,825.470825 
	C333.118408,819.148682 337.974182,821.391541 343.041992,823.495117 
	C343.592285,831.472656 332.253204,840.194214 318.457397,838.999512 
z"/>
<path fill="#000000" opacity="1.000000" stroke="none" 
	d="
M381.984985,818.916321 
	C381.990265,820.898682 382.034668,822.395691 381.998566,823.890747 
	C381.931427,826.670471 383.330994,827.701294 386.013397,827.651794 
	C390.667175,827.565796 395.329926,827.797058 399.977783,827.613464 
	C404.361847,827.440247 404.096527,830.319824 404.196716,833.237915 
	C404.301178,836.281372 403.771790,838.401184 399.951721,838.335022 
	C391.474518,838.188110 382.992889,838.243286 374.513611,838.299744 
	C371.825104,838.317627 370.623260,837.295715 370.636688,834.485107 
	C370.706604,819.853699 370.742737,805.221191 370.623047,790.590393 
	C370.585205,785.960815 373.729309,786.862732 376.435883,786.704590 
	C379.547485,786.522705 382.028839,786.801758 381.970520,790.996521 
	C381.843384,800.139221 381.966797,809.285339 381.984985,818.916321 
z"/>
<path fill="#000000" opacity="1.000000" stroke="none" 
	d="
M657.256104,799.017456 
	C657.250305,810.663269 657.106018,821.815369 657.310852,832.960999 
	C657.387390,837.124146 655.885925,838.558350 651.797974,838.379761 
	C648.172668,838.221375 645.448914,838.256409 645.555420,833.198181 
	C645.846008,819.392212 645.812195,805.573303 645.565613,791.765564 
	C645.484680,787.234131 647.553284,786.562500 651.310791,786.645691 
	C654.799561,786.722900 657.737488,786.757263 657.278137,791.535828 
	C657.056335,793.843628 657.250488,796.191528 657.256104,799.017456 
z"/>
<path fill="#000000" opacity="1.000000" stroke="none" 
	d="
M656.460571,392.270966 
	C649.728699,407.343811 641.712463,421.156097 630.372192,434.367249 
	C624.356750,400.174744 610.395874,372.169891 581.042786,353.514069 
	C559.496704,339.820007 536.201294,332.914703 510.820618,335.553741 
	C481.091003,338.644958 456.616486,352.856506 437.898590,375.721283 
	C419.328613,398.405365 411.390137,425.084625 413.965271,454.371826 
	C412.201447,454.913788 411.613464,453.936279 410.943024,453.274292 
	C391.469086,434.045105 375.524780,412.166626 367.152313,386.065613 
	C356.955048,354.275909 360.493774,324.084442 384.314484,298.697479 
	C396.600220,285.603973 412.356049,278.783447 430.172455,276.656586 
	C460.407593,273.047119 485.251678,283.630310 505.920319,305.279938 
	C507.756470,307.203186 509.472839,309.240753 511.146454,311.115112 
	C514.037842,309.955963 515.239441,307.874939 516.777344,306.200806 
	C532.342712,289.256226 551.356628,278.239838 574.267029,275.878693 
	C618.539368,271.315887 656.279785,298.406036 662.129395,343.868164 
	C664.234009,360.224884 662.757080,376.393768 656.460571,392.270966 
z"/>
<path fill="#000000" opacity="1.000000" stroke="none" 
	d="
M436.559387,486.280609 
	C421.475739,451.821655 423.899231,418.939850 445.250977,388.462463 
	C461.909668,364.683868 485.470764,351.410217 514.698303,349.688416 
	C553.658569,347.393341 583.537292,363.602142 603.906311,396.476837 
	C615.045044,414.454346 618.781799,434.464935 616.581055,455.801544 
	C612.396362,496.373566 581.406433,532.117188 536.023376,539.121826 
	C497.837921,545.015564 458.499756,526.465637 439.579712,491.887207 
	C438.620941,490.134949 437.670258,488.378326 436.559387,486.280609 
M486.774750,378.279877 
	C459.348969,392.860504 443.290863,424.916016 448.125214,456.352570 
	C454.127167,495.381805 491.666534,525.868591 534.191833,518.759766 
	C576.946533,511.612640 605.291809,469.100525 594.942139,427.194183 
	C583.158630,379.482178 531.250305,355.694733 486.774750,378.279877 
z"/>
<path fill="#000000" opacity="1.000000" stroke="none" 
	d="
M528.336853,399.016235 
	C528.339111,409.345490 528.386353,419.178162 528.315186,429.010010 
	C528.297180,431.497223 528.728088,433.564331 530.936218,435.080444 
	C532.467041,436.131531 533.870300,437.666443 534.129944,439.436005 
	C534.900391,444.687408 538.862000,446.607391 542.862854,448.758392 
	C550.197876,452.702118 557.434326,456.829132 564.711914,460.879608 
	C569.673828,463.641235 571.250610,467.472382 569.067383,471.462250 
	C566.839844,475.533112 562.693176,476.486755 557.860352,473.833740 
	C549.246399,469.104980 540.644165,464.350342 532.143982,459.422119 
	C529.973328,458.163605 528.165344,457.699219 525.658386,458.486542 
	C518.990967,460.580475 512.851990,458.321564 509.545105,452.957764 
	C506.179871,447.499298 506.953888,440.458984 511.918884,435.580750 
	C514.055908,433.481110 514.703064,431.314758 514.684448,428.496948 
	C514.602295,415.998718 514.630920,403.499603 514.663208,391.000916 
	C514.678711,384.993042 516.665710,382.473907 521.264465,382.430481 
	C526.296509,382.382965 528.302795,384.813599 528.335938,391.020050 
	C528.349243,393.519745 528.338013,396.019562 528.336853,399.016235 
z"/>
</svg>